# xmcd
#
# Track frame offsets:
#	182
#	11215
#	22090
#	34350
#	48282
#	59917
#	75965
#	91220
#	104610
#	117602
#	127587
#	140465
#	151127
#	162535
#	175235
#	185287
#	196430
#
# Disc length: 2787 seconds
#
# Revision: 3
# Processed by: cddbd v1.5.2PL0 Copyright (c) Steve Scherf et al.
# Submitted via: audiograbber 1.83.01
#
DISCID=e80ae111
DTITLE=Howlin' Wolf - 16 greatest hits
DYEAR=1900
DGENRE=Blues
TTITLE0=Little red rooster
TTITLE1=Wang dang doodle
TTITLE2=Spoonful
TTITLE3=Smokestack lightnin'
TTITLE4=Howling for my darling
TTITLE5=Blue bird
TTITLE6=Goin' down slow
TTITLE7=Tail dragger
TTITLE8=I asked for water (she gave me gasoline)
TTITLE9=The Natchez burnin'
TTITLE10=Walk to camp hall
TTITLE11=Who's been talking
TTITLE12=Sittin' on top of the world
TTITLE13=Back door man
TTITLE14=Shake for me
TTITLE15=You'll be mine
TTITLE16=Killing floor
EXTD=
EXTT0=
EXTT1=
EXTT2=
EXTT3=
EXTT4=
EXTT5=
EXTT6=
EXTT7=
EXTT8=
EXTT9=
EXTT10=
EXTT11=
EXTT12=
EXTT13=
EXTT14=
EXTT15=
EXTT16=
PLAYORDER=
